HIERARCHY
ROOT Hips
{
  OFFSET -331.093 83.8371 -317.828
  CHANNELS 6 Xposition Yposition Zposition Zrotation Xrotation Yrotation
  JOINT LeftUpLeg
  {
    OFFSET 8.64259 1.95398 -2.38835
    CHANNELS 3 Zrotation Xrotation Yrotation
    JOINT LeftLeg
    {
      OFFSET 43.7702 0 0
      CHANNELS 3 Zrotation Xrotation Yrotation
      JOINT LeftFoot
      {
        OFFSET 40.6238 0 0
        CHANNELS 3 Zrotation Xrotation Yrotation
        JOINT LeftToeBase
        {
          OFFSET 12.7242 0 0
          CHANNELS 3 Zrotation Xrotation Yrotation
          End Site
          {
            OFFSET 0 0 0
          }
        }
      }
    }
  }
  JOINT RightUpLeg
  {
    OFFSET -8.2249 1.95398 -2.59336
    CHANNELS 3 Zrotation Xrotation Yrotation
    JOINT RightLeg
    {
      OFFSET 43.5653 0 0
      CHANNELS 3 Zrotation Xrotation Yrotation
      JOINT RightFoot
      {
        OFFSET 40.6238 0 0
        CHANNELS 3 Zrotation Xrotation Yrotation
        JOINT RightToeBase
        {
          OFFSET 12.7242 0 0
          CHANNELS 3 Zrotation Xrotation Yrotation
          End Site
          {
            OFFSET 0 0 0
          }
        }
      }
    }
  }
  JOINT Spine
  {
    OFFSET 0.165834 0.87714 6.61349
    CHANNELS 3 Zrotation Xrotation Yrotation
    JOINT Spine1
    {
      OFFSET 7.38963 1.71661e-005 0
      CHANNELS 3 Zrotation Xrotation Yrotation
      JOINT Spine2
      {
        OFFSET 11.9445 1.14441e-005 0
        CHANNELS 3 Zrotation Xrotation Yrotation
        JOINT Spine3
        {
          OFFSET 14.7254 4.19617e-005 0
          CHANNELS 3 Zrotation Xrotation Yrotation
          JOINT Spine4
          {
            OFFSET 10.9679 0 0
            CHANNELS 3 Zrotation Xrotation Yrotation
            JOINT RightShoulder
            {
              OFFSET 2.46616 -1.6653 3.69651
              CHANNELS 3 Zrotation Xrotation Yrotation
              JOINT RightArm
              {
                OFFSET 13.0012 0 0
                CHANNELS 3 Zrotation Xrotation Yrotation
                JOINT RightForeArm
                {
                  OFFSET 28.7848 1.62311e-005 0
                  CHANNELS 3 Zrotation Xrotation Yrotation
                  JOINT RightHand
                  {
                    OFFSET 26.5688 1.62095e-005 0
                    CHANNELS 3 Zrotation Xrotation Yrotation
                    End Site
                    {
                      OFFSET 0 0 0
                    }
                  }
                }
              }
            }
            JOINT LeftShoulder
            {
              OFFSET 2.38034 -1.29275 -3.7523
              CHANNELS 3 Zrotation Xrotation Yrotation
              JOINT LeftArm
              {
                OFFSET 16.3182 6.07031e-005 0
                CHANNELS 3 Zrotation Xrotation Yrotation
                JOINT LeftForeArm
                {
                  OFFSET 27.0901 0 0
                  CHANNELS 3 Zrotation Xrotation Yrotation
                  JOINT LeftHand
                  {
                    OFFSET 24.5451 1.51738e-005 0
                    CHANNELS 3 Zrotation Xrotation Yrotation
                    End Site
                    {
                      OFFSET 0 0 0
                    }
                  }
                }
              }
            }
            JOINT Neck
            {
              OFFSET 5.0226 -0.0266342 0
              CHANNELS 3 Zrotation Xrotation Yrotation
              JOINT Head
              {
                OFFSET 6.69364 2.86102e-005 0
                CHANNELS 3 Zrotation Xrotation Yrotation
                End Site
                {
                  OFFSET 0 0 0
                }
              }
            }
          }
        }
      }
    }
  }
}
MOTION
Frames:	9
Frame Time:	0.0416667
95.2173 98.8455 -127.338 11.2338 -88.1021 11.5374 -170.407 17.1452 97.1731 -22.2373 -9.89619 -3.15189 66.5407 6.3737 7.69078 31.3788 6.88211 17.2458 168.678 7.29999 89.1162 -20.037 9.70274 1.02003 72.5255 -7.25142 -3.58501 30.4054 -1.22921 -9.03529 0.55913 7.49537 -88.8592 11.8637 1.64877 2.09858 0.192176 1.73951 2.02399 -22.3328 0.942059 2.49686 -2.32013 0.942051 2.49685 87.8735 -40.8526 -106.377 37.8355 -9.58412 14.4799 -7.06719 -11.785 -32.876 -8.48885 -0.543396 1.69853 -89.9399 -45.4095 78.2468 -4.03668 10.0366 -18.5751 26.6556 -26.0008 -123.682 7.18364 0.469732 2.32497 -11.1228 -2.83454 11.4138 10.0144 -4.90099 -15.0416 
96.2254 98.8266 -127.526 25.5121 -88.3613 26.1403 -169.307 16.4262 97.8439 -20.9816 -11.0752 -4.10976 63.6634 3.66678 5.96011 29.4875 4.33063 15.0666 168.359 6.6435 88.6896 -19.4177 10.221 1.1005 72.5953 -7.03877 -3.4801 29.3262 -1.26111 -10.1474 0.480766 7.48783 -88.9163 11.8814 1.4662 2.00391 0.209812 1.55297 1.93746 -22.3154 0.796349 2.35175 -2.30279 0.796351 2.35174 87.8343 -40.9045 -106.426 37.8021 -8.79056 15.2776 -7.24865 -11.1882 -33.0455 -7.92907 -0.505049 1.60703 -89.8706 -45.236 78.3144 -4.69218 9.35296 -18.1381 25.4079 -25.2003 -124.369 6.34551 0.383966 1.85477 -10.6706 -2.54732 11.7442 9.29701 -4.60745 -15.3137 
97.3197 98.7197 -127.755 32.5024 -88.8469 33.6302 -168.8 15.9709 98.2526 -20.4815 -10.2517 -4.55286 61.9176 2.12303 5.11993 29.3943 3.5826 12.6981 168.345 6.17442 88.4991 -19.1518 10.2302 0.916076 72.5899 -7.00753 -3.46019 29.0452 -1.34853 -11.1049 0.453996 7.49228 -88.9865 11.8745 1.37986 1.87323 0.202984 1.46096 1.8107 -22.3235 0.753241 2.2012 -2.3109 0.753246 2.20119 88.1421 -40.965 -105.887 37.3688 -8.69735 15.4878 -7.12077 -11.4002 -32.7092 -7.75235 -0.483434 1.37214 -89.8267 -45.239 78.3842 -5.03319 8.67143 -17.8574 24.1546 -24.4741 -125.048 6.63674 0.329394 0.960046 -10.1417 -2.38052 11.2254 8.65887 -4.29785 -14.4215 
98.3878 98.611 -127.905 57.3392 -88.5972 58.5676 -168.363 16.3992 97.9394 -21.646 -9.60239 -5.00604 62.6373 2.55307 4.72799 29.8408 3.63049 11.3434 167.87 6.56889 87.8035 -19.9383 10.3838 1.00449 72.2982 -6.78823 -3.38586 30.1598 -1.37638 -10.3408 0.365136 7.49058 -89.0309 11.88 1.18231 1.80578 0.20841 1.26063 1.75201 -22.3181 0.585084 2.07752 -2.30542 0.585072 2.07751 88.6524 -40.7385 -105.098 36.8891 -9.04427 15.353 -6.26037 -10.9004 -31.7527 -7.04905 -0.445572 1.42929 -90.0765 -45.5859 78.0749 -5.13935 8.14602 -17.7714 23.0218 -23.7604 -125.532 5.92373 0.241655 0.197516 -9.68147 -2.27574 10.8228 8.38568 -4.12054 -13.7817 
99.3208 98.4769 -128.078 61.6779 -88.1794 62.9791 -167.977 17.3372 97.7556 -23.2706 -7.75042 -5.44953 63.2693 2.9505 4.57785 30.7514 4.50398 11.4847 167.374 7.30739 87.2823 -21.0418 9.49161 1.20943 73.3463 -7.25261 -3.55698 29.4903 -1.35354 -10.7378 0.333228 7.4818 -89.0735 11.8988 1.09895 1.72963 0.227268 1.174 1.6796 -22.2998 0.528438 1.97985 -2.28717 0.52844 1.97985 87.9735 -41.2066 -106.092 36.6949 -7.377 16.4455 -6.82799 -9.97321 -32.0114 -6.57647 -0.430867 1.74442 -90.883 -46.4725 77.0394 -4.52415 7.64049 -17.8044 22.569 -23.3852 -125.635 6.13605 0.248579 0.186075 -9.57914 -2.50859 10.7429 8.89004 -4.44258 -14.0412 
100.12 98.3995 -128.232 75.023 -88.2627 76.2273 -167.671 17.498 97.612 -24.5434 -4.85944 -5.71141 63.1018 2.76701 4.2811 32.8443 6.10113 10.4441 167.593 7.48719 86.9352 -21.7704 9.45303 0.733155 73.7877 -7.37853 -3.58874 29.3751 -1.24908 -10.0059 0.372365 7.51778 -89.0851 11.8267 1.17081 1.69949 0.155207 1.24447 1.64632 -22.3725 0.606032 1.9727 -2.35985 0.606031 1.97269 88.0061 -41.2493 -106.023 36.421 -7.03223 16.8859 -5.36412 -7.53881 -31.8581 -6.49957 -0.406538 1.591 -91.6158 -47.1136 76.0765 -4.16898 7.48468 -17.8232 23.0699 -23.4888 -125.281 5.80278 0.288392 0.879247 -9.79937 -2.90585 10.0032 9.3026 -4.76562 -13.4292 
100.883 98.3829 -128.399 83.0941 -88.3075 84.3371 -168.075 18.0233 97.4668 -26.1527 0.735593 -5.24628 61.4195 1.91872 4.79988 39.1162 10.9038 8.11089 167.928 7.51795 86.7993 -21.8563 9.41269 0.28778 73.8945 -7.29693 -3.54433 28.7311 -1.17612 -9.96172 0.411593 7.54308 -89.079 11.7756 1.25133 1.7038 0.104187 1.32509 1.64709 -22.4238 0.681532 2.00101 -2.41118 0.681525 2.001 88.0663 -41.3014 -105.905 36.5896 -7.08385 17.1181 -6.30201 -9.38779 -31.6117 -6.93756 -0.460441 1.982 -91.8068 -47.1938 75.8055 -4.42062 8.3829 -18.056 24.4744 -24.2569 -124.368 6.61072 0.342084 1.07129 -9.61035 -3.07323 9.37869 9.2661 -4.8939 -13.2973 
101.583 98.2802 -128.477 86.2288 -88.2882 87.4385 -169.132 18.2551 97.1812 -27.3497 8.35396 -4.35094 59.6236 1.03037 5.16312 47.8695 18.7961 7.90549 168.126 7.76686 86.5042 -22.2559 9.1011 -0.0525012 74.1717 -7.12468 -3.46291 28.3063 -1.07414 -9.47346 0.438637 7.56534 -89.0293 11.7295 1.32815 1.79524 0.0580898 1.40586 1.73507 -22.4692 0.727336 2.11129 -2.45654 0.727338 2.11128 88.1611 -41.6536 -105.633 36.4347 -7.77144 16.7218 -5.50711 -9.03893 -30.9332 -6.67491 -0.436478 1.86951 -91.3646 -46.8978 76.4059 -4.93931 8.68079 -18.4221 23.5794 -23.7274 -124.55 6.04298 0.342217 1.54051 -8.80079 -3.18482 8.10544 8.54774 -4.84386 -12.6696 
102.274 98.1692 -128.566 97.2888 -88.191 98.5873 -170.551 17.8073 96.9143 -28.0487 15.9593 -3.28292 59.2794 1.97994 7.29614 51.6705 23.5009 9.81946 168.392 7.76034 86.3338 -22.8074 9.16935 -0.450284 74.5313 -6.96574 -3.39023 27.4389 -0.964735 -9.2711 0.48826 7.61351 -89.0509 11.6331 1.41607 1.74438 -0.0381977 1.49146 1.68038 -22.5665 0.826471 2.0892 -2.55389 0.826473 2.0892 88.2709 -41.7673 -105.413 36.4603 -8.44774 16.7454 -6.69926 -11.1205 -30.5912 -7.28114 -0.533407 2.90331 -91.6442 -47.3363 76.0904 -5.05741 10.4063 -18.3452 27.9364 -26.1433 -122.727 7.97203 0.794902 5.3884 -8.64428 -3.50401 7.33254 8.89822 -5.0774 -11.8194 
